<svg xmlns="http://www.w3.org/2000/svg" width="99" height="99" viewBox="0 0 99 99">
  <g id="Groupe_53" data-name="Groupe 53" transform="translate(-138 -605.5)">
    <g id="Ellipse_113" data-name="Ellipse 113" transform="translate(156 623)" fill="none" stroke="#eda564" stroke-width="1">
      <circle cx="31.5" cy="31.5" r="31.5" stroke="none"/>
      <circle cx="31.5" cy="31.5" r="31" fill="none"/>
    </g>
    <g id="Groupe_49" data-name="Groupe 49" transform="translate(-0.5 -69)">
      <g id="Soustraction_2" data-name="Soustraction 2" transform="translate(1317.653 660.153)" fill="none">
        <path d="M-1129.653,103.847a39.711,39.711,0,0,1-23.434-7.58l3.228-3.228a35.294,35.294,0,0,0,20.206,6.308,35.288,35.288,0,0,0,20.208-6.309l3.228,3.228A39.71,39.71,0,0,1-1129.653,103.847Zm32-15.99h0l-3.217-3.217a35.243,35.243,0,0,0,6.722-20.792,35.291,35.291,0,0,0-6.307-20.206l3.228-3.228a39.708,39.708,0,0,1,7.579,23.434,39.94,39.94,0,0,1-2.117,12.876,39.834,39.834,0,0,1-5.886,11.133Zm-63.991,0h0a39.829,39.829,0,0,1-5.886-11.133,39.937,39.937,0,0,1-2.117-12.876,39.705,39.705,0,0,1,7.581-23.435l3.229,3.228a35.285,35.285,0,0,0-6.308,20.207,35.236,35.236,0,0,0,6.722,20.791l-3.218,3.218Zm11.2-52.786h0l-3.218-3.218a39.836,39.836,0,0,1,11.134-5.888,39.936,39.936,0,0,1,12.876-2.118,39.935,39.935,0,0,1,12.876,2.117,39.829,39.829,0,0,1,11.134,5.887l-3.219,3.219a35.236,35.236,0,0,0-20.792-6.722,35.238,35.238,0,0,0-20.79,6.722Z" stroke="none"/>
        <path d="M -1129.653076171875 103.8465194702148 C -1138.13525390625 103.8465194702148 -1146.238647460938 101.2255020141602 -1153.08740234375 96.26686096191406 L -1149.85986328125 93.039306640625 C -1143.908325195313 97.16606140136719 -1136.921752929688 99.347412109375 -1129.653930664063 99.347412109375 C -1122.384155273438 99.347412109375 -1115.396362304688 97.16579437255859 -1109.446166992188 93.03839874267578 L -1106.218505859375 96.26650238037109 C -1113.068237304688 101.2259216308594 -1121.171630859375 103.8465194702148 -1129.653076171875 103.8465194702148 Z M -1097.657836914063 87.85675048828125 L -1097.65869140625 87.85593414306641 L -1100.87548828125 84.63870239257813 C -1096.477905273438 78.5621337890625 -1094.153442382813 71.37288665771484 -1094.153442382813 63.84690475463867 C -1094.153442382813 56.57791900634766 -1096.33447265625 49.59082794189453 -1100.460571289063 43.64099502563477 L -1097.23291015625 40.41282653808594 C -1092.273803710938 47.26192092895508 -1089.653442382813 55.36524200439453 -1089.653442382813 63.84690475463867 C -1089.653442382813 68.25559997558594 -1090.365844726563 72.58767700195313 -1091.770751953125 76.72280883789063 C -1093.129272460938 80.72080993652344 -1095.109741210938 84.46652221679688 -1097.657104492188 87.85582733154297 L -1097.657836914063 87.85675048828125 Z M -1161.649047851563 87.85633850097656 L -1161.649780273438 87.85541534423828 C -1164.197265625 84.46620941162109 -1166.177734375 80.72061157226563 -1167.536254882813 76.72257995605469 C -1168.941162109375 72.58766174316406 -1169.653564453125 68.25566101074219 -1169.653564453125 63.84690475463867 C -1169.653564453125 55.36339569091797 -1167.0322265625 47.25962829589844 -1162.072998046875 40.41168975830078 L -1158.844482421875 43.64010620117188 C -1162.97119140625 49.58938217163086 -1165.152587890625 56.57633590698242 -1165.152587890625 63.84690475463867 C -1165.152587890625 71.37321472167969 -1162.828125 78.56258392333984 -1158.430541992188 84.63779449462891 L -1161.648193359375 87.85552215576172 L -1161.649047851563 87.85633850097656 Z M -1150.44482421875 35.07030487060547 L -1150.445434570313 35.06970596313477 L -1153.663818359375 31.85168838500977 C -1150.272705078125 29.30276679992676 -1146.526611328125 27.32241249084473 -1142.529418945313 25.96410369873047 C -1138.39404296875 24.55890464782715 -1134.061767578125 23.84639739990234 -1129.653076171875 23.84639739990234 C -1125.244140625 23.84639739990234 -1120.912109375 24.55876541137695 -1116.77734375 25.96368980407715 C -1112.779296875 27.32215118408203 -1109.033325195313 29.3028736114502 -1105.6435546875 31.85087394714355 L -1108.862182617188 35.06939697265625 C -1114.937377929688 30.67179679870605 -1122.126586914063 28.34730529785156 -1129.653930664063 28.34730529785156 C -1137.178833007813 28.34730529785156 -1144.367919921875 30.67190551757813 -1150.444091796875 35.06979751586914 L -1150.44482421875 35.07030487060547 Z" stroke="none" fill="#208fe5"/>
      </g>
      <line id="Ligne_34" data-name="Ligne 34" y2="10" transform="translate(187.5 676.5)" fill="none" stroke="#208fe5" stroke-linecap="round" stroke-width="4"/>
      <line id="Ligne_35" data-name="Ligne 35" y2="10" transform="translate(187.5 761.5)" fill="none" stroke="#208fe5" stroke-linecap="round" stroke-width="4"/>
      <line id="Ligne_37" data-name="Ligne 37" y2="10" transform="translate(150.5 723.5) rotate(90)" fill="none" stroke="#208fe5" stroke-linecap="round" stroke-width="4"/>
      <line id="Ligne_36" data-name="Ligne 36" y2="10" transform="translate(235.5 723.5) rotate(90)" fill="none" stroke="#208fe5" stroke-linecap="round" stroke-width="4"/>
    </g>
    <text id="開始" transform="translate(187.5 664)" fill="#e9f1f6" font-size="24" font-family="HGSSoeiKakugothicUB"><tspan x="-24" y="0">開始</tspan></text>
  </g>
</svg>
