<svg xmlns="http://www.w3.org/2000/svg" width="192.032" height="92" viewBox="0 0 192.032 92">
  <g id="Groupe_52" data-name="Groupe 52" transform="translate(-253.157 -609)">
    <path id="Tracé_236" data-name="Tracé 236" d="M19.573.09H0" transform="translate(321.635 642.11)" fill="#208fe5" stroke="#208fe5" stroke-width="1"/>
    <path id="Tracé_238" data-name="Tracé 238" d="M0,0H10.3" transform="matrix(-0.779, 0.627, -0.627, -0.779, 322.281, 642)" fill="#208fe5" stroke="#208fe5" stroke-width="1"/>
    <g id="Ellipse_115" data-name="Ellipse 115" transform="translate(340.157 641)" fill="#208fe5" stroke="#208fe5" stroke-width="1">
      <ellipse cx="1.5" cy="1.5" rx="1.5" ry="1.5" stroke="none"/>
      <ellipse cx="1.5" cy="1.5" rx="1" ry="1" fill="none"/>
    </g>
    <path id="Tracé_266" data-name="Tracé 266" d="M99.566,1.583H-9.479" transform="translate(327.606 686.367)" fill="#208fe5" stroke="#208fe5" stroke-width="2"/>
    <path id="Tracé_232" data-name="Tracé 232" d="M93.89.032H-9.479" transform="translate(330.606 622.018)" fill="#208fe5" stroke="#208fe5" stroke-width="1"/>
    <path id="Tracé_248" data-name="Tracé 248" d="M97.23.265H0" transform="translate(343.127 657.785)" fill="#208fe5" stroke="#208fe5" stroke-width="2"/>
    <path id="Tracé_272" data-name="Tracé 272" d="M78.31.032H0" transform="translate(256.188 697.918)" fill="#208fe5" stroke="#208fe5" stroke-width="2"/>
    <path id="Tracé_228" data-name="Tracé 228" d="M78.31.032H0" transform="translate(259.188 612.018)" fill="#208fe5" stroke="#208fe5" stroke-width="1"/>
    <path id="Tracé_244" data-name="Tracé 244" d="M78.31.032H0" transform="translate(281.188 648.018)" fill="#208fe5" stroke="#208fe5" stroke-width="2"/>
    <path id="Tracé_260" data-name="Tracé 260" d="M25.31.032H0" transform="translate(281.188 678.068)" fill="#208fe5" stroke="#208fe5" stroke-width="2"/>
    <path id="Tracé_258" data-name="Tracé 258" d="M25.31.032H0" transform="translate(306.188 667.868)" fill="#208fe5" stroke="#208fe5" stroke-width="2"/>
    <path id="Tracé_240" data-name="Tracé 240" d="M22.53,0H0" transform="translate(285.25 632.586)" fill="#208fe5" stroke="#208fe5" stroke-width="1"/>
    <path id="Tracé_242" data-name="Tracé 242" d="M76.072.09H0" transform="translate(361.25 632.496)" fill="#208fe5" stroke="#208fe5" stroke-width="1"/>
    <path id="Tracé_270" data-name="Tracé 270" d="M22.53,0H0" transform="translate(269.25 688.586)" fill="#208fe5" stroke="#208fe5" stroke-width="1"/>
    <path id="Tracé_250" data-name="Tracé 250" d="M22.53,0H0" transform="translate(290.25 656.389)" fill="#208fe5" stroke="#208fe5" stroke-width="1"/>
    <path id="Tracé_268" data-name="Tracé 268" d="M0,0H16.48" transform="matrix(-0.779, 0.627, -0.627, -0.779, 346.706, 687.856)" fill="#208fe5" stroke="#208fe5" stroke-width="2"/>
    <path id="Tracé_230" data-name="Tracé 230" d="M0,0H16.48" transform="translate(349.706 622.144) rotate(-141.2)" fill="#208fe5" stroke="#208fe5" stroke-width="1"/>
    <path id="Tracé_246" data-name="Tracé 246" d="M0,0H16.48" transform="translate(371.706 658.144) rotate(-141.2)" fill="#208fe5" stroke="#208fe5" stroke-width="2"/>
    <path id="Tracé_262" data-name="Tracé 262" d="M0,0H16.48" transform="translate(305.863 677.856) rotate(38.8)" fill="#208fe5" stroke="#208fe5" stroke-width="2"/>
    <path id="Tracé_234" data-name="Tracé 234" d="M0,0H17.563" transform="translate(307.446 632.496) rotate(-36.8)" fill="#208fe5" stroke="#208fe5" stroke-width="1"/>
    <path id="Tracé_264" data-name="Tracé 264" d="M0,0H17.563" transform="translate(291.446 688.496) rotate(-36.8)" fill="#208fe5" stroke="#208fe5" stroke-width="1"/>
    <path id="Tracé_252" data-name="Tracé 252" d="M0,0H.479L18.372.075l.8,0" transform="translate(312.493 656.417) rotate(36.8)" fill="#208fe5" stroke="#208fe5" stroke-width="1"/>
    <path id="Tracé_254" data-name="Tracé 254" d="M0,0H16.48" transform="matrix(0.779, -0.627, 0.627, 0.779, 330.863, 668.144)" fill="#208fe5" stroke="#208fe5" stroke-width="2"/>
    <path id="Tracé_256" data-name="Tracé 256" d="M0,3.37H0l.741-.03L2.37,3.286,90.839.137,94.788,0" transform="matrix(0.779, -0.627, 0.627, 0.779, 363.592, 672.647)" fill="#208fe5" stroke="#208fe5" stroke-width="1"/>
    <g id="Ellipse_129" data-name="Ellipse 129" transform="translate(278.157 675)" fill="#208fe5" stroke="#208fe5" stroke-width="1">
      <ellipse cx="3" cy="3" rx="3" ry="3" stroke="none"/>
      <ellipse cx="3" cy="3" rx="2.5" ry="2.5" fill="none"/>
    </g>
    <g id="Ellipse_117" data-name="Ellipse 117" transform="translate(283.157 631)" fill="#208fe5" stroke="#208fe5" stroke-width="0.5">
      <ellipse cx="1.5" cy="1.5" rx="1.5" ry="1.5" stroke="none"/>
      <ellipse cx="1.5" cy="1.5" rx="1.25" ry="1.25" fill="none"/>
    </g>
    <g id="Ellipse_119" data-name="Ellipse 119" transform="translate(359.157 631)" fill="#208fe5" stroke="#208fe5" stroke-width="0.5">
      <ellipse cx="1.5" cy="1.5" rx="1.5" ry="1.5" stroke="none"/>
      <ellipse cx="1.5" cy="1.5" rx="1.25" ry="1.25" fill="none"/>
    </g>
    <g id="Ellipse_131" data-name="Ellipse 131" transform="translate(267.157 687)" fill="#208fe5" stroke="#208fe5" stroke-width="0.5">
      <ellipse cx="1.5" cy="1.5" rx="1.5" ry="1.5" stroke="none"/>
      <ellipse cx="1.5" cy="1.5" rx="1.25" ry="1.25" fill="none"/>
    </g>
    <g id="Ellipse_123" data-name="Ellipse 123" transform="translate(288.157 654.975)" fill="#208fe5" stroke="#208fe5" stroke-width="0.5">
      <ellipse cx="1.5" cy="1.5" rx="1.5" ry="1.5" stroke="none"/>
      <ellipse cx="1.5" cy="1.5" rx="1.25" ry="1.25" fill="none"/>
    </g>
    <g id="Ellipse_125" data-name="Ellipse 125" transform="translate(303.157 665)" fill="#208fe5" stroke="#208fe5" stroke-width="1">
      <ellipse cx="3" cy="3" rx="3" ry="3" stroke="none"/>
      <ellipse cx="3" cy="3" rx="2.5" ry="2.5" fill="none"/>
    </g>
    <g id="Ellipse_127" data-name="Ellipse 127" transform="translate(363.66 673.686)" fill="#208fe5" stroke="#208fe5" stroke-width="0.5">
      <ellipse cx="1.5" cy="1.5" rx="1.5" ry="1.5" stroke="none"/>
      <ellipse cx="1.5" cy="1.5" rx="1.25" ry="1.25" fill="none"/>
    </g>
    <g id="Ellipse_133" data-name="Ellipse 133" transform="translate(253.157 695)" fill="#208fe5" stroke="#208fe5" stroke-width="1">
      <ellipse cx="3" cy="3" rx="3" ry="3" stroke="none"/>
      <ellipse cx="3" cy="3" rx="2.5" ry="2.5" fill="none"/>
    </g>
    <g id="Ellipse_112" data-name="Ellipse 112" transform="translate(256.157 609)" fill="#208fe5" stroke="#208fe5" stroke-width="1">
      <ellipse cx="3" cy="3" rx="3" ry="3" stroke="none"/>
      <ellipse cx="3" cy="3" rx="2.5" ry="2.5" fill="none"/>
    </g>
    <g id="Ellipse_121" data-name="Ellipse 121" transform="translate(278.157 645)" fill="#208fe5" stroke="#208fe5" stroke-width="1">
      <ellipse cx="3" cy="3" rx="3" ry="3" stroke="none"/>
      <ellipse cx="3" cy="3" rx="2.5" ry="2.5" fill="none"/>
    </g>
  </g>
</svg>
