<svg xmlns="http://www.w3.org/2000/svg" width="585.791" height="119.522" viewBox="0 0 585.791 119.522">
  <g id="Groupe_81" data-name="Groupe 81" transform="translate(-166.735 -27.434)">
    <g id="Groupe_63" data-name="Groupe 63" transform="translate(77)">
      <g id="Groupe_55" data-name="Groupe 55" transform="translate(1979 -238)">
        <path id="Tracé_26" data-name="Tracé 26" d="M-1847.675,49.408h438.949l14,14.6h74.838l17.366,17.086-.077,69.449-17.288,13.015h-484.995" transform="translate(-4 220.883)" fill="none" stroke="#208fe5" stroke-width="1"/>
        <path id="Tracé_37" data-name="Tracé 37" d="M-1853.933,49.408h-29.839V78.97" transform="translate(-1 223)" fill="none" stroke="#208fe5" stroke-linejoin="bevel" stroke-width="5"/>
        <path id="Tracé_34" data-name="Tracé 34" d="M-1883.772,90.3v48.755l17.839,17.11h30.449" transform="translate(-1 226.284)" fill="none" stroke="#208fe5" stroke-width="5"/>
        <path id="Tracé_39" data-name="Tracé 39" d="M0,0,6.057,5.454,6.6,23.844.351,18.214Z" transform="translate(-1409.593 269.853) rotate(-42)" fill="#afdcff"/>
        <path id="Tracé_40" data-name="Tracé 40" d="M0,0,6.057,5.454,6.6,23.844.351,18.214Z" transform="translate(-1398.593 269.853) rotate(-42)" fill="#afdcff"/>
        <path id="Tracé_41" data-name="Tracé 41" d="M0,0,6.057,5.454,6.6,23.844.351,18.214Z" transform="translate(-1387.593 269.853) rotate(-42)" fill="#afdcff"/>
        <path id="Tracé_42" data-name="Tracé 42" d="M0,0,6.057,5.454,6.6,23.844.351,18.214Z" transform="translate(-1376.593 269.853) rotate(-42)" fill="#afdcff"/>
        <path id="Tracé_38" data-name="Tracé 38" d="M-.895,0H28.187V5H4.062Z" transform="translate(-1352.439 285)" fill="#208fe5"/>
        <path id="Tracé_32" data-name="Tracé 32" d="M0,0H13.761V5.008H4.813Z" transform="translate(-1830 384.956) rotate(180)" fill="#208fe5"/>
        <path id="Tracé_28" data-name="Tracé 28" d="M.512,0h21.87V3.03H3.376Z" transform="translate(-1814.563 384.956) rotate(180)" fill="#208fe5"/>
        <path id="Tracé_29" data-name="Tracé 29" d="M.642,0H7.08V.5H1.136Z" transform="translate(-1815.873 383.938)" fill="#208fe5"/>
        <path id="Tracé_30" data-name="Tracé 30" d="M.725,0H5.986V.577H1.278Z" transform="translate(-1813.512 384.365)" fill="#208fe5"/>
        <path id="Tracé_44" data-name="Tracé 44" d="M-.441,0H7.2V1.805H1.327Z" transform="translate(-1887.219 272.781) rotate(90)" fill="#208fe5"/>
        <path id="Tracé_35" data-name="Tracé 35" d="M0,0H9.975V2.493H2.308Z" transform="translate(-1887.265 311.315) rotate(-90)" fill="#208fe5"/>
        <g id="Groupe_54" data-name="Groupe 54" transform="translate(12 234.984)">
          <path id="Tracé_24" data-name="Tracé 24" d="M0,0H11.991V2.791H2.775Z" transform="translate(-1898.474 105.34) rotate(90)" fill="#208fe5"/>
          <path id="Tracé_25" data-name="Tracé 25" d="M0,2.791H11.991V0H2.775Z" transform="translate(-1901.265 120.331) rotate(-90)" fill="#208fe5"/>
        </g>
        <g id="Groupe_53" data-name="Groupe 53" transform="translate(-1306.265 318.324)">
          <path id="Tracé_24-2" data-name="Tracé 24" d="M0,2.791H12.779V0H2.957Z" transform="translate(2.791) rotate(90)" fill="#208fe5"/>
          <path id="Tracé_25-2" data-name="Tracé 25" d="M0,0H12.779V2.791H2.957Z" transform="translate(0 15.779) rotate(-90)" fill="#208fe5"/>
        </g>
        <path id="Tracé_36" data-name="Tracé 36" d="M0,0H9.975V2.814H2.308Z" transform="translate(-1885.073 305.315) rotate(-90)" fill="#208fe5"/>
        <path id="Tracé_43" data-name="Tracé 43" d="M0,1.805H7.638V0H1.767Z" transform="translate(-1889.024 286.978) rotate(-90)" fill="#208fe5"/>
        <path id="Tracé_45" data-name="Tracé 45" d="M-.441,0H7.2V1.805H1.327Z" transform="translate(-1870.743 270.062) rotate(180)" fill="#208fe5"/>
        <path id="Tracé_46" data-name="Tracé 46" d="M0,1.805H7.621V0H1.763Z" transform="translate(-1884.923 268.257)" fill="#208fe5"/>
        <path id="Tracé_27" data-name="Tracé 27" d="M0,2.918H19.51V0H2.983Z" transform="translate(-1309.444 363.219) rotate(-90)" fill="#208fe5"/>
        <path id="Tracé_31" data-name="Tracé 31" d="M0,3.426H19.51V0H2.983Z" transform="translate(-1311.952 348.22) rotate(-90)" fill="#208fe5"/>
        <path id="Tracé_33" data-name="Tracé 33" d="M-1322.8,62l17.1,16.575V120.5" transform="translate(-3.746 224.207)" fill="none" stroke="#208fe5" stroke-width="5"/>
        <rect id="Rectangle_13" data-name="Rectangle 13" width="5" height="10" transform="translate(-1879.484 271.048) rotate(45)" fill="#208fe5"/>
      </g>
      <path id="Tracé_47" data-name="Tracé 47" d="M-1904.263-1378.541l459.557.278,13.866,14.528h46.094l4.827,4.212h22.715l8.85,8.85v65.605l-8.85,7.132h-483.934l-3.6-3.123h-51.346l-13.251-13.251v-79.078Z" transform="translate(2010 1419)" fill="#1b1e24" stroke="#afdcff" stroke-width="1"/>
    </g>
    <line id="Ligne_1" data-name="Ligne 1" y2="80" transform="translate(591.5 50.5)" fill="none" stroke="#208fe5" stroke-width="1" stroke-dasharray="4 2"/>
  </g>
</svg>
